<svg width="14" height="14" viewBox="0 0 14 14" fill="none" xmlns="http://www.w3.org/2000/svg">
<path d="M1.49998 13.9998C1.08748 13.9998 0.734365 13.8529 0.440619 13.5592C0.146873 13.2654 0 12.9123 0 12.4998V2.62942C0 2.43201 0.0381939 2.23955 0.114582 2.05205C0.19097 1.86456 0.298607 1.70137 0.437494 1.56248L1.56248 0.437494C1.70137 0.298607 1.86456 0.19097 2.05205 0.114582C2.23955 0.0381939 2.43052 0 2.62496 0H11.3748C11.5693 0 11.7603 0.0381939 11.9478 0.114582C12.1352 0.19097 12.2984 0.298607 12.4373 0.437494L13.5623 1.56248C13.7012 1.70137 13.8088 1.86456 13.8852 2.05205C13.9616 2.23955 13.9998 2.43201 13.9998 2.62942V12.4998C13.9998 12.9123 13.8529 13.2654 13.5592 13.5592C13.2654 13.8529 12.9123 13.9998 12.4998 13.9998H1.49998ZM1.62498 2.49997H12.3748L11.3748 1.49998H2.62496L1.62498 2.49997ZM1.49998 3.99994V12.4998H12.4998V3.99994H1.49998ZM6.9999 11.2498L9.99986 8.24988L8.93738 7.1874L7.74989 8.37488V5.24993H6.24991V8.37488L5.06243 7.1874L3.99994 8.24988L6.9999 11.2498Z" fill="#4D596C"/>
</svg>
