<svg width="10" height="11" viewBox="0 0 10 11" fill="none" xmlns="http://www.w3.org/2000/svg">
<path d="M3.2 7.54492L5 5.74492L6.8 7.54492L7.5 6.84492L5.7 5.04492L7.5 3.24492L6.8 2.54492L5 4.34492L3.2 2.54492L2.5 3.24492L4.3 5.04492L2.5 6.84492L3.2 7.54492ZM5 10.0449C4.30833 10.0449 3.65833 9.91359 3.05 9.65092C2.44167 9.38859 1.9125 9.03242 1.4625 8.58242C1.0125 8.13242 0.656333 7.60326 0.394 6.99492C0.131333 6.38659 0 5.73659 0 5.04492C0 4.35326 0.131333 3.70326 0.394 3.09492C0.656333 2.48659 1.0125 1.95742 1.4625 1.50742C1.9125 1.05742 2.44167 0.701089 3.05 0.438422C3.65833 0.176089 4.30833 0.0449219 5 0.0449219C5.69167 0.0449219 6.34167 0.176089 6.95 0.438422C7.55833 0.701089 8.0875 1.05742 8.5375 1.50742C8.9875 1.95742 9.34367 2.48659 9.606 3.09492C9.86867 3.70326 10 4.35326 10 5.04492C10 5.73659 9.86867 6.38659 9.606 6.99492C9.34367 7.60326 8.9875 8.13242 8.5375 8.58242C8.0875 9.03242 7.55833 9.38859 6.95 9.65092C6.34167 9.91359 5.69167 10.0449 5 10.0449ZM5 9.04492C6.11667 9.04492 7.0625 8.65742 7.8375 7.88242C8.6125 7.10742 9 6.16159 9 5.04492C9 3.92826 8.6125 2.98242 7.8375 2.20742C7.0625 1.43242 6.11667 1.04492 5 1.04492C3.88333 1.04492 2.9375 1.43242 2.1625 2.20742C1.3875 2.98242 1 3.92826 1 5.04492C1 6.16159 1.3875 7.10742 2.1625 7.88242C2.9375 8.65742 3.88333 9.04492 5 9.04492Z" fill="#CD3746"/>
</svg>
