<svg width="10" height="11" viewBox="0 0 10 11" fill="none" xmlns="http://www.w3.org/2000/svg">
<path d="M5 10.0449C4.30833 10.0449 3.65833 9.91359 3.05 9.65092C2.44167 9.38859 1.9125 9.03242 1.4625 8.58242C1.0125 8.13242 0.656333 7.60326 0.394 6.99492C0.131333 6.38659 0 5.73659 0 5.04492C0 4.35326 0.131333 3.70326 0.394 3.09492C0.656333 2.48659 1.0125 1.95742 1.4625 1.50742C1.9125 1.05742 2.44167 0.701089 3.05 0.438422C3.65833 0.176089 4.30833 0.0449219 5 0.0449219C5.54167 0.0449219 6.05417 0.124088 6.5375 0.282422C7.02083 0.440755 7.46667 0.661589 7.875 0.944922L7.15 1.68242C6.83333 1.48242 6.49583 1.32609 6.1375 1.21342C5.77917 1.10109 5.4 1.04492 5 1.04492C3.89167 1.04492 2.948 1.43442 2.169 2.21342C1.38967 2.99276 1 3.93659 1 5.04492C1 6.15326 1.38967 7.09709 2.169 7.87642C2.948 8.65542 3.89167 9.04492 5 9.04492C6.10833 9.04492 7.05217 8.65542 7.8315 7.87642C8.6105 7.09709 9 6.15326 9 5.04492C9 4.89492 8.99167 4.74492 8.975 4.59492C8.95833 4.44492 8.93333 4.29909 8.9 4.15742L9.7125 3.34492C9.80417 3.61159 9.875 3.88659 9.925 4.16992C9.975 4.45326 10 4.74492 10 5.04492C10 5.73659 9.86867 6.38659 9.606 6.99492C9.34367 7.60326 8.9875 8.13242 8.5375 8.58242C8.0875 9.03242 7.55833 9.38859 6.95 9.65092C6.34167 9.91359 5.69167 10.0449 5 10.0449ZM4.3 7.34492L2.175 5.21992L2.875 4.51992L4.3 5.94492L9.3 0.932422L10 1.63242L4.3 7.34492Z" fill="#05A570"/>
</svg>
