<svg width="125" height="125" viewBox="0 0 125 125" fill="none" xmlns="http://www.w3.org/2000/svg">
<path d="M26.237 102.582L87.1086 106.654C88.244 106.73 89.226 105.871 89.3018 104.735L95.152 17.2694C95.2281 16.134 94.3691 15.1522 93.2338 15.0762L32.3621 11.0047C31.2266 10.9287 30.2448 11.7876 30.1688 12.9229L24.3186 100.389C24.2428 101.524 25.1016 102.506 26.237 102.582Z" fill="#B3BDD2"/>
<path d="M20.0604 113.267H66.6534L83.1281 96.865V23.5447C83.1281 22.4068 82.2056 21.4844 81.0677 21.4844H20.0604C18.9224 21.4844 18 22.4068 18 23.5447V111.206C18 112.344 18.9224 113.267 20.0604 113.267Z" fill="url(#paint0_linear_1365_47433)"/>
<path d="M48.9736 33.7324H51.0261V36.3886H48.9736V33.7324Z" fill="#555A66"/>
<path d="M49.9924 33.7324H51.0262V36.3886H49.9924V33.7324Z" fill="#333940"/>
<path d="M43.6858 36.3027L45.1369 34.8516L47.0148 36.7295L45.5637 38.1806L43.6858 36.3027Z" fill="#555A66"/>
<path d="M54.4358 38.1836L52.9847 36.7325L54.8626 34.8546L56.3137 36.3057L54.4358 38.1836Z" fill="#333940"/>
<circle cx="49.9999" cy="42.3505" r="6.98139" fill="#707789"/>
<path d="M49.9999 35.3691C49.9974 35.3691 49.9949 35.3692 49.9924 35.3692V49.3318C49.9949 49.3318 49.9974 49.3319 49.9999 49.3319C53.8556 49.3319 56.9813 46.2062 56.9813 42.3505C56.9813 38.4948 53.8556 35.3691 49.9999 35.3691Z" fill="#555A66"/>
<circle cx="50.0001" cy="42.3511" r="5.30621" fill="white"/>
<path d="M48.3096 32.959H51.6901V34.6186H48.3096V32.959Z" fill="#707789"/>
<path d="M49.9924 32.959H51.6902V34.6186H49.9924V32.959Z" fill="#555A66"/>
<path d="M49.561 41.9141L52.4722 39.0029L53.3456 39.8762L50.4344 42.7874L49.561 41.9141Z" fill="#333940"/>
<circle cx="49.9998" cy="42.3514" r="1.08187" fill="#707789"/>
<path d="M49.9999 41.2695C49.9974 41.2695 49.9949 41.2697 49.9924 41.2697V43.4331C49.9949 43.4331 49.9974 43.4333 49.9999 43.4333C50.5974 43.4333 51.0818 42.949 51.0818 42.3514C51.0818 41.7539 50.5974 41.2695 49.9999 41.2695Z" fill="#555A66"/>
<path d="M81.0679 21.4844H72.8264C73.9644 21.4844 74.8868 22.4068 74.8868 23.5447V96.865L74.8336 105.123L83.1282 96.865V23.5447C83.1282 22.4068 82.2058 21.4844 81.0679 21.4844Z" fill="#DAE9FB"/>
<path d="M71.6369 70.6836H29.4916C28.6382 70.6836 27.9463 71.2433 27.9463 71.9336C27.9463 72.6239 28.6382 73.1836 29.4916 73.1836H71.6369C72.4905 73.1836 73.1822 72.6239 73.1822 71.9336C73.1822 71.2433 72.4905 70.6836 71.6369 70.6836Z" fill="#B3BDD2"/>
<path d="M71.6369 77.1836H29.4916C28.6382 77.1836 27.9463 77.7433 27.9463 78.4336C27.9463 79.1239 28.6382 79.6836 29.4916 79.6836H71.6369C72.4905 79.6836 73.1822 79.1239 73.1822 78.4336C73.1822 77.7433 72.4905 77.1836 71.6369 77.1836Z" fill="#B3BDD2"/>
<path d="M29.4916 66.6836H71.6369C72.4905 66.6836 73.1822 66.1239 73.1822 65.4336C73.1822 64.7433 72.4905 64.1836 71.6369 64.1836H29.4916C28.6382 64.1836 27.9463 64.7433 27.9463 65.4336C27.9463 66.1239 28.6382 66.6836 29.4916 66.6836Z" fill="#B3BDD2"/>
<path d="M36.9156 60.1836H64.2128C65.0662 60.1836 65.758 59.6239 65.758 58.9336C65.758 58.2433 65.0662 57.6836 64.2128 57.6836H36.9156C36.0622 57.6836 35.3704 58.2433 35.3704 58.9336C35.3704 59.6239 36.0622 60.1836 36.9156 60.1836Z" fill="#B3BDD2"/>
<path d="M45.0739 99.9721C43.3497 99.9767 38.7422 99.9851 38.1626 99.9851C37.2759 99.9851 36.4008 99.7309 36.1698 98.6417C35.9709 97.6806 34.5894 97.8098 34.321 98.6417C33.674 100.646 32.5481 99.8643 31.9457 98.5093C31.3325 97.1302 31.1753 95.5866 30.9075 94.119C30.7107 93.0405 29.0533 93.3428 29.0244 94.3698C28.9863 95.7222 28.8579 97.0532 28.5091 98.3648C28.1493 99.7182 27.61 101.019 27.0747 102.312C26.608 103.439 28.4637 103.924 28.9235 102.813C29.3979 101.668 29.8729 100.516 30.2264 99.3272C31.134 101.475 33.2577 102.889 35.1719 100.818C36.1914 101.977 37.676 101.873 39.0813 101.871C41.0788 101.869 43.0764 101.864 45.0739 101.859C46.3075 101.856 46.3099 99.969 45.0739 99.9721Z" fill="#2A7EC3"/>
<path d="M66.6533 113.267V98.7928C66.6533 97.6548 67.5757 96.7324 68.7137 96.7324H83.128L66.6533 113.267Z" fill="#DAE9FB"/>
<path d="M102.675 81.2089L98.6182 81.229V75.0506C98.6182 73.9343 99.5254 73.0251 100.645 73.0196H100.646C101.766 73.014 102.675 73.9156 102.675 75.0329V81.2089H102.675Z" fill="#E7BF6E"/>
<path d="M100.648 112.281C99.3881 111.031 98.6789 109.331 98.6775 107.557L98.6699 98.565C98.6699 98.4867 98.7336 98.4229 98.8123 98.4224L102.464 98.4043C102.542 98.4039 102.606 98.4671 102.606 98.5454L102.614 107.551C102.615 109.317 101.915 111.012 100.667 112.262L100.648 112.281Z" fill="#E7BF6E"/>
<path d="M100.648 108.045H100.646C98.8917 108.054 97.4688 106.642 97.4688 104.892V78.9357C97.4688 78.1118 98.1345 77.4426 98.9585 77.4385L102.317 77.4219C103.147 77.4178 103.821 78.0893 103.821 78.919V104.865C103.821 106.613 102.401 108.036 100.648 108.045Z" fill="#3E4BCA"/>
<path d="M102.317 77.4219L99.4274 77.4362C100.161 77.5323 100.729 78.1583 100.729 78.919V104.865C100.729 106.059 100.066 107.101 99.0872 107.645C99.5479 107.902 100.08 108.048 100.646 108.045H100.648C102.401 108.036 103.821 106.613 103.821 104.865V78.919C103.821 78.0893 103.147 77.4178 102.317 77.4219Z" fill="#5763D2"/>
<path d="M105.427 81.1289L96.7213 81.1721C95.8333 81.1765 95.1135 81.8976 95.1135 82.7825C95.1135 83.6676 95.8333 84.3814 96.7213 84.377L103.819 84.3418V93.7615C103.819 94.6466 104.539 95.3604 105.427 95.356C106.315 95.3516 107.035 94.6305 107.035 93.7455V82.7233C107.035 81.8385 106.315 81.1246 105.427 81.1289Z" fill="#BD9441"/>
<path d="M105.427 81.1289L100.754 81.1518L100.734 84.3502L103.819 84.342V93.7617C103.819 94.6468 104.539 95.3606 105.427 95.3562C106.315 95.3519 107.035 94.6307 107.035 93.7458V82.7236C107.035 81.8385 106.315 81.1246 105.427 81.1289Z" fill="#E7BF6E"/>
<defs>
<linearGradient id="paint0_linear_1365_47433" x1="-12.3889" y1="61.2986" x2="64.624" y2="120.08" gradientUnits="userSpaceOnUse">
<stop stop-color="#EAF4FF"/>
<stop offset="1" stop-color="#E3EDFD"/>
</linearGradient>
</defs>
</svg>
