<svg width="26" height="26" viewBox="0 0 26 26" fill="none" xmlns="http://www.w3.org/2000/svg">
<path fill-rule="evenodd" clip-rule="evenodd" d="M11.1008 0.667686C12.4412 -0.104072 14.0911 -0.104073 15.4316 0.667685L22.6245 4.80905C23.9698 5.58359 24.7989 7.0177 24.7989 8.57002V16.8319C24.7989 18.3842 23.9698 19.8183 22.6245 20.5929L15.4316 24.7342C14.0911 25.506 12.4412 25.506 11.1008 24.7342L3.90781 20.5929C2.56253 19.8183 1.7334 18.3842 1.7334 16.8319V8.57002C1.7334 7.0177 2.56253 5.5836 3.90781 4.80905L11.1008 0.667686ZM9.65617 6.78097C11.3398 6.78097 12.7046 8.1458 12.7046 9.82941V18.541C11.021 18.541 9.65617 17.1761 9.65617 15.4925V6.78097ZM17.2773 15.1894C17.2773 13.5058 15.9125 12.141 14.2288 12.141V15.8125C14.2288 17.4961 15.5937 18.861 17.2773 18.861V15.1894Z" fill="white"/>
</svg>
