<svg width="59" height="26" viewBox="0 0 59 26" fill="none" xmlns="http://www.w3.org/2000/svg">
<path fill-rule="evenodd" clip-rule="evenodd" d="M9.90863 1.3739C11.2216 0.612346 12.8418 0.612345 14.1547 1.3739L20.9619 5.32241C22.2669 6.07937 23.0702 7.47389 23.0702 8.98253V16.9138C23.0702 18.4224 22.2669 19.8169 20.9619 20.5739L14.1547 24.5224C12.8418 25.284 11.2216 25.284 9.90863 24.5224L3.10141 20.5739C1.79642 19.8169 0.993164 18.4224 0.993164 16.9138V8.98253C0.993164 7.47389 1.79642 6.07937 3.10141 5.32241L9.90863 1.3739ZM8.57639 7.23958C10.1878 7.23958 11.4942 8.54592 11.4942 10.1574V18.5796C9.88273 18.5796 8.57639 17.2732 8.57639 15.6618V7.23958ZM15.8709 15.3259C15.8709 13.7145 14.5645 12.4081 12.9531 12.4081V15.9703C12.9531 17.5818 14.2594 18.8881 15.8709 18.8881V15.3259Z" fill="#D0D8E3"/>
<path fill-rule="evenodd" clip-rule="evenodd" d="M28.4643 7.74871V11.8663C28.8476 11.022 29.9238 10.6666 30.6462 10.6666C32.4006 10.6666 33.4325 11.8219 33.4325 13.7918V17.0355C33.4325 17.4502 33.0935 17.8057 32.6512 17.8057C32.2384 17.8057 31.914 17.4502 31.914 17.0355V13.8806C31.914 12.7994 31.2359 12.1625 30.3808 12.1625C29.511 12.1625 28.4643 12.6513 28.4643 14.0139V17.0355C28.4643 17.4502 28.1252 17.8057 27.6829 17.8057C27.2701 17.8057 26.9458 17.4502 26.9458 17.0355V7.74871C26.9458 7.33399 27.2849 6.97852 27.7272 6.97852C28.1399 6.97852 28.4643 7.33399 28.4643 7.74871ZM34.6052 8.01532C34.6052 7.46729 35.0769 7.05257 35.6224 7.05257C36.1826 7.05257 36.6249 7.46729 36.6249 8.01532C36.6249 8.56334 36.1826 8.97806 35.6224 8.97806C35.0769 8.97806 34.6052 8.56334 34.6052 8.01532ZM36.389 17.0355C36.389 17.4502 36.0499 17.8057 35.6077 17.8057C35.1949 17.8057 34.8705 17.4502 34.8705 17.0355V11.5108C34.8705 11.0961 35.1949 10.7406 35.6077 10.7406C36.0499 10.7406 36.389 11.0961 36.389 11.5108V17.0355ZM43.7241 11.7034L41.4685 17.1095C41.2915 17.5391 40.9967 17.8057 40.5544 17.8057H40.466C40.0237 17.8057 39.7141 17.5391 39.5372 17.1095L37.2963 11.7034C37.1341 11.3183 37.3848 10.8295 37.7976 10.7554C38.1956 10.6814 38.5642 10.8739 38.7116 11.259L40.5102 15.7913L42.3088 11.259C42.4562 10.8739 42.8248 10.6814 43.2228 10.7554C43.6356 10.8295 43.8862 11.3183 43.7241 11.7034ZM45.6044 13.7029H49.5996C49.4522 12.6217 48.6708 11.9996 47.6388 11.9996C46.5774 11.9996 45.7518 12.6365 45.6044 13.7029ZM51.0886 14.1176C51.0886 14.5175 50.7643 14.8138 50.3957 14.8138H45.6044C45.7518 15.8802 46.6069 16.5467 47.7125 16.5467C48.4349 16.5467 48.8477 16.2949 49.349 15.8802C49.5996 15.6728 50.0124 15.5691 50.322 15.8209C50.6021 16.0431 50.6168 16.5023 50.3515 16.7837C49.6586 17.5094 48.6561 17.8797 47.6388 17.8797C45.6781 17.8797 44.1006 16.443 44.1006 14.2509C44.1006 12.0588 45.6781 10.6666 47.6388 10.6666C49.5554 10.6666 51.0296 11.9996 51.0886 14.1176ZM55.4162 12.1033C54.1188 12.1033 53.5733 13.4067 53.5733 15.2433V17.0355C53.5733 17.4502 53.2343 17.8057 52.792 17.8057C52.3792 17.8057 52.0548 17.4502 52.0548 17.0355V11.5108C52.0548 11.0961 52.3792 10.7406 52.792 10.7406C53.2343 10.7406 53.5733 11.0961 53.5733 11.5108V12.3995C53.9272 11.1701 54.6053 10.6666 55.4604 10.6666C55.6815 10.6666 55.9027 10.6814 56.1091 10.7258C56.4924 10.8147 56.743 11.1998 56.6545 11.5997C56.5218 12.2662 55.8584 12.1033 55.4162 12.1033Z" fill="#D0D8E3"/>
</svg>
