<svg width="8" height="11" viewBox="0 0 8 11" fill="none" xmlns="http://www.w3.org/2000/svg">
<path d="M2 9.04492H6V7.54492C6 6.99492 5.80417 6.52409 5.4125 6.13242C5.02083 5.74076 4.55 5.54492 4 5.54492C3.45 5.54492 2.97917 5.74076 2.5875 6.13242C2.19583 6.52409 2 6.99492 2 7.54492V9.04492ZM4 4.54492C4.55 4.54492 5.02083 4.34909 5.4125 3.95742C5.80417 3.56576 6 3.09492 6 2.54492V1.04492H2V2.54492C2 3.09492 2.19583 3.56576 2.5875 3.95742C2.97917 4.34909 3.45 4.54492 4 4.54492ZM0 10.0449V9.04492H1V7.54492C1 7.03659 1.11883 6.55942 1.3565 6.11342C1.59383 5.66776 1.925 5.31159 2.35 5.04492C1.925 4.77825 1.59383 4.42192 1.3565 3.97592C1.11883 3.53026 1 3.05326 1 2.54492V1.04492H0V0.0449219H8V1.04492H7V2.54492C7 3.05326 6.88133 3.53026 6.644 3.97592C6.40633 4.42192 6.075 4.77825 5.65 5.04492C6.075 5.31159 6.40633 5.66776 6.644 6.11342C6.88133 6.55942 7 7.03659 7 7.54492V9.04492H8V10.0449H0Z" fill="#F07530"/>
</svg>
