<svg width="20" height="20" viewBox="0 0 20 20" fill="none" xmlns="http://www.w3.org/2000/svg">
<path fill-rule="evenodd" clip-rule="evenodd" d="M2 10.2227V14.8893L4.44347 16.4449H15.948L18 14.8893V10.2227H13.8795L11.6 12.556H8.4L6.8 10.2227H2Z" fill="#FFE250"/>
<path d="M18 10.2227H13.2L11.6 12.556H8.4L6.8 10.2227H2" stroke="#3E4C5A" stroke-width="1.4" stroke-linecap="round" stroke-linejoin="round"/>
<path fill-rule="evenodd" clip-rule="evenodd" d="M4.76 4.86333L2 10.2222V14.8889C2 15.748 2.71634 16.4444 3.6 16.4444H16.4C17.2837 16.4444 18 15.748 18 14.8889V10.2222L15.24 4.86333C14.9698 4.33471 14.4152 4.00031 13.808 4H6.192C5.58484 4.00031 5.03018 4.33471 4.76 4.86333Z" stroke="#3E4C5A" stroke-width="1.4" stroke-linecap="round" stroke-linejoin="round"/>
</svg>
