<svg width="10" height="10" viewBox="0 0 10 10" fill="none" xmlns="http://www.w3.org/2000/svg">
<path fill-rule="evenodd" clip-rule="evenodd" d="M8.04509 0.920487L9.27236 2.18049C9.34981 2.25935 9.39337 2.3667 9.39337 2.47869C9.39337 2.59067 9.34981 2.69802 9.27236 2.77689C9.19555 2.8564 9.09099 2.90112 8.98191 2.90112C8.87283 2.90112 8.76827 2.8564 8.69145 2.77689L8.16373 2.23089V4.57869C8.16373 4.81065 7.98057 4.99869 7.75464 4.99869C7.5287 4.99869 7.34555 4.81065 7.34555 4.57869V2.23089L6.81782 2.77689C6.6574 2.94158 6.39732 2.94158 6.23691 2.77689C6.0765 2.6122 6.0765 2.34518 6.23691 2.18049L7.46418 0.920487C7.50309 0.88225 7.54897 0.852277 7.59918 0.832287C7.69878 0.790279 7.81049 0.790279 7.91009 0.832287C7.96031 0.852277 8.00618 0.88225 8.04509 0.920487ZM8.16344 6.25869C8.16344 6.02673 8.3466 5.83869 8.57253 5.83869C8.79847 5.83869 8.98162 6.02673 8.98162 6.25869V7.93869C8.98162 8.63456 8.43215 9.19869 7.75435 9.19869H2.02708C1.34927 9.19869 0.799805 8.63456 0.799805 7.93869V3.73869C0.799805 3.04281 1.34927 2.47869 2.02708 2.47869H4.89071C5.11665 2.47869 5.2998 2.66673 5.2998 2.89869C5.2998 3.13065 5.11665 3.31869 4.89071 3.31869H2.1948L4.60435 5.78829C4.76342 5.94837 5.018 5.94837 5.17708 5.78829L5.84799 5.09949C6.0084 4.93479 6.26848 4.93479 6.42889 5.09949C6.58931 5.26418 6.58931 5.53119 6.42889 5.69589L5.75799 6.38469C5.27883 6.87601 4.5026 6.87601 4.02344 6.38469L1.61799 3.91089V7.93869C1.61799 8.17064 1.80114 8.35869 2.02708 8.35869H7.75435C7.98028 8.35869 8.16344 8.17064 8.16344 7.93869V6.25869Z" fill="white"/>
</svg>
